<?xml version="1.0" encoding="utf-8"?>
<!-- Generator: Adobe Illustrator 15.1.0, SVG Export Plug-In . SVG Version: 6.00 Build 0)  -->
<!DOCTYPE svg PUBLIC "-//W3C//DTD SVG 1.1//EN" "http://www.w3.org/Graphics/SVG/1.1/DTD/svg11.dtd">
<svg version="1.1" id="CMYK" xmlns="http://www.w3.org/2000/svg" xmlns:xlink="http://www.w3.org/1999/xlink" x="0px" y="0px"
	 width="559.671px" height="74.85px" viewBox="0 0 559.671 74.85" enable-background="new 0 0 559.671 74.85" xml:space="preserve">
<g>
	<g>
		<path d="M331.413,21.824L321.254,50.15l-9.908-28.326h-9.004l14.611,38.072c-0.877,2.193-1.912,4.434-3.355,5.875
			c-1.314,1.311-3.08,2.078-5.463,2.078c-3,0-5.08-1.006-5.623-1.236l-2.457,6.158c0.998,0.469,4.01,2.08,8.166,2.08
			c5.312,0,8.869-1.924,10.719-3.768c2.83-2.83,4.338-5.598,6.998-12.932l13.896-36.328H331.413z"/>
		<path d="M57.261,59.389h-8.464L34.403,21.824h8.855L53.412,50.15l10.092-28.326h8.226L57.261,59.389z"/>
		<path d="M106.449,43.137H80.983c0,4.545,2.838,10.391,10.696,10.391c5.23,0,9.231-2.307,10.312-2.842l2.926,5.539
			c-0.384,0.232-5.778,4.088-13.93,4.088c-11.782,0-18.328-8.4-18.328-19.48c0-11.771,7.164-20.09,17.78-20.09
			c10.24,0,16.167,7.391,16.167,19.398C106.605,41.371,106.449,42.527,106.449,43.137z M90.594,27.209
			c-5.232,0-8.929,3.922-9.611,9.623h17.61C98.593,33.596,97.296,27.209,90.594,27.209z"/>
		<path d="M136.401,59.389V38.834c0-4.854-0.075-7.547-1.767-9.24c-0.695-0.689-2.31-1.619-4.699-1.619
			c-4.235,0-7.851,2.393-8.388,2.773v28.641h-8.469V21.824h7.396v2.77c0.613-0.463,5.307-3.852,11.157-3.852
			c4.623,0,7.616,1.697,9.388,3.471c3.924,3.92,3.848,8.686,3.848,14.154v21.021H136.401z"/>
		<path d="M208.206,59.389l-15.238-18.941v18.941h-8.465V3.729h8.465v34.18l14.758-16.084h10.162l-16.148,17.084l16.705,20.48
			H208.206z"/>
		<path d="M292.204,59.389l-15.238-18.941v18.941H268.5V3.729h8.465v34.18l14.449-16.084h10.16l-15.846,17.084l16.705,20.48H292.204
			z"/>
		<path d="M393.973,59.389l-15.246-18.941v18.941h-8.463V3.729h8.463v34.18l14.762-16.084h10.152l-16.145,17.084l16.713,20.48
			H393.973z"/>
		<path d="M467.145,59.389V38.834c0-4.854-0.078-7.547-1.771-9.24c-0.693-0.689-2.309-1.619-4.693-1.619
			c-4.232,0-7.857,2.393-8.391,2.773v28.641h-8.469V21.824h7.385v2.77c0.625-0.463,5.316-3.852,11.162-3.852
			c4.623,0,7.621,1.697,9.391,3.471c3.926,3.92,3.852,8.686,3.852,14.154v21.021H467.145z"/>
		<path d="M166.834,36.678c-3.846-1.617-6.692-2.77-6.692-5.467c0-2.15,1.768-4.232,5.999-4.232c3.868,0,7.597,1.92,8.509,2.432
			l2.78-5.516c-1.146-0.771-5.144-3.152-11.826-3.152c-8.233,0-13.93,4.465-13.93,11.232c0,6.859,5.773,9.312,9.93,11.086
			c5.077,2.158,8.082,3.16,8.082,6.084c0,2.619-2.235,4.617-6.54,4.617c-5.081,0-9.087-2.541-9.852-2.924l-3.006,5.543
			c0.464,0.387,5.693,4,13.699,4c8.316,0,14.319-4.387,14.319-11.773C178.307,41.217,172.071,38.834,166.834,36.678z"/>
		<path d="M19.796,28.748c-6.621-2.85-9.469-4.08-9.469-8.006c0-3.85,3.619-6.541,8.776-6.541c5.105,0,8.978,2.693,10.135,3.586
			l3.946-5.92c-1.598-1.344-6.67-4.98-14.695-4.98c-9.929,0-16.858,5.854-16.858,14.545c0,9.855,8.928,13.088,12.932,14.857
			c4.923,2.158,10.624,3.852,10.624,9.082c0,4.543-3.235,7.549-9.091,7.549c-6.154,0-11.001-3.691-12.004-4.312
			c-0.075-0.051-0.236-0.166-0.236-0.166L0,54.672c0,0,0.122,0.127,0.188,0.188l0,0c0.88,0.855,7.056,5.678,16.372,5.678
			c11.085,0,17.629-6.541,17.629-15.855C34.188,35.369,27.105,31.904,19.796,28.748z"/>
		<path d="M433.008,24.668c-2.695-2.691-6.088-4.004-11.703-4.004c-7.496,0-12.16,2.873-13.457,3.84l2.691,5.658
			c0.785-0.441,5.174-2.875,10.072-2.875c3.473,0,5.006,0.615,6.084,1.693c1.006,0.996,1.229,2.307,1.229,4.691v1.467h-1.385
			c-5.234,0-21.164,0.311-21.164,13.16c0,7.004,4.697,11.852,12.082,11.852c6.152,0,10.545-3.156,11.082-3.543v2.781h7.385v-23.1
			C435.924,31.287,435.924,27.594,433.008,24.668z M427.924,51.068c-0.617,0.309-3.92,2.543-8.307,2.543
			c-3.625,0-6.617-1.848-6.617-5.691c0-1.627,0.455-2.854,1.455-3.855c2.16-2.156,6.391-2.93,11.697-2.93c0,0,0.928,0,1.771,0
			V51.068z"/>
		<path d="M247.245,24.668c-2.699-2.691-6.082-4.004-11.701-4.004c-7.498,0-12.168,2.873-13.469,3.84l2.697,5.658
			c0.787-0.449,5.18-2.875,10.082-2.875c3.463,0,4.998,0.615,6.078,1.693c1.008,0.996,1.227,2.307,1.227,4.691v1.467h-1.379
			c-5.236,0-21.172,0.311-21.172,13.16c0,7.004,4.691,11.852,12.092,11.852c6.154,0,10.543-3.156,11.084-3.543v2.781h7.383v-23.1
			C250.167,31.287,250.167,27.594,247.245,24.668z M242.159,51.068c-0.607,0.309-3.92,2.543-8.307,2.543
			c-3.621,0-6.621-1.848-6.621-5.691c0-1.627,0.465-2.854,1.461-3.855c2.152-2.156,6.391-2.93,11.701-2.93c0,0,0.92,0,1.766,0
			V51.068z"/>
		<path d="M366.579,21.318c-0.646-0.248-1.762-0.576-3.516-0.576c-7.553,0-11.936,5.316-12.248,5.855v-4.773h-7.377v37.564h8.453
			V33.672c0.848-1.229,4.01-5.77,10.855-5.77c0.803,0,2.004,0.139,2.457,0.215L366.579,21.318z"/>
	</g>
	<g>
		<path fill="#FFCB05" d="M492.881,0.002v32.223c0,12.758,3.539,19.986,9.578,26.018c6.055,6.047,14.6,9.346,23.822,9.346
			c9.221,0,17.768-3.299,23.805-9.346c6.049-6.043,9.584-13.25,9.584-26.018V0.002H492.881z"/>
		<g>
			<path fill="#E11B22" d="M559.67,22.264h-22.258V0.002h-22.262v22.262h-22.27v9.961c0,4.803,0.502,8.818,1.449,12.285h20.82
				v21.363c3.502,1.125,7.256,1.715,11.131,1.715s7.629-0.59,11.131-1.715V44.51h20.811c0.947-3.465,1.447-7.48,1.447-12.285V22.264
				z"/>
		</g>
		<path fill="#FFCB05" d="M539.469,29.973c-1.205-1.73-3.551-1.746-4.76-0.078c2.523,0.996,2.744,3.479,1.635,5.432
			c0,0-1.225-0.959-4.918-1.148c-1.906-0.1-2.738-0.1-2.738-0.1c-0.252-3.334,1.947-4.771,4.119-4.643
			c-0.193-2.176-3.004-2.582-4.182-1.857c0.936-2.473-2.344-4.664-2.344-4.664s-3.295,2.191-2.348,4.664
			c-1.178-0.725-3.992-0.318-4.186,1.857c2.162-0.129,4.371,1.309,4.129,4.643c0,0-0.844,0-2.75,0.1
			c-3.689,0.189-4.916,1.148-4.916,1.148c-1.107-1.953-0.893-4.436,1.641-5.432c-1.203-1.668-3.566-1.652-4.76,0.078
			c-1.156-2.539-4.723-1.873-4.723-1.873c2.623,3.398,5.414,8.051,7.396,12.273c0.779-0.457,2.701-1.334,5.518-1.529
			c2.809-0.184,4.998-0.172,4.998-0.172s2.219-0.012,4.99,0.172c2.811,0.195,4.746,1.072,5.504,1.529
			c1.998-4.223,4.785-8.875,7.416-12.273C544.192,28.1,540.618,27.434,539.469,29.973z"/>
	</g>
</g>
</svg>
